<svg xmlns="http://www.w3.org/2000/svg" fill="none" viewBox="0 0 41 40" height="40" width="41">
<circle fill="url(#paint0_linear_1766_64518)" r="20" cy="20" cx="20.5"></circle>
<path fill="white" d="M20.501 7.25H20.5493C22.7796 7.25948 24.9567 7.93175 26.804 9.1814C28.6514 10.431 30.0855 12.2016 30.9243 14.2682C31.763 16.3348 31.9684 18.6041 31.5145 20.7877C31.0606 22.9713 29.9678 24.9707 28.375 26.5318V29.75C28.3743 30.3465 28.137 30.9184 27.7152 31.3402C27.2934 31.762 26.7215 31.9993 26.125 32H25V28.625H22.75V32H21.625V28.625H19.375V32H18.25V28.625H16V32H14.875C14.2784 31.9993 13.7066 31.762 13.2848 31.3402C12.863 30.9184 12.6257 30.3465 12.625 29.75V26.5319C11.5287 25.4578 10.664 24.1707 10.084 22.7498C9.50393 21.3288 9.22092 19.8042 9.25236 18.2698C9.37442 12.1835 14.4161 7.25 20.501 7.25ZM14.1249 22.4312C14.6799 22.8021 15.3325 23 16 23C16.8948 22.999 17.7526 22.6431 18.3853 22.0104C19.0181 21.3777 19.374 20.5198 19.375 19.625C19.375 18.9575 19.177 18.305 18.8062 17.75C18.4353 17.1949 17.9082 16.7624 17.2915 16.5069C16.6748 16.2515 15.9962 16.1846 15.3415 16.3148C14.6869 16.4451 14.0855 16.7665 13.6135 17.2385C13.1415 17.7105 12.82 18.3119 12.6898 18.9666C12.5596 19.6213 12.6264 20.2999 12.8819 20.9166C13.1373 21.5333 13.5699 22.0604 14.1249 22.4312ZM23.1249 22.4312C23.6799 22.8021 24.3325 23 25 23C25.8948 22.999 26.7526 22.6431 27.3853 22.0104C28.0181 21.3777 28.374 20.5198 28.375 19.625C28.375 18.9575 28.177 18.305 27.8062 17.75C27.4353 17.1949 26.9082 16.7624 26.2915 16.5069C25.6748 16.2515 24.9962 16.1846 24.3415 16.3148C23.6869 16.4451 23.0855 16.7665 22.6135 17.2385C22.1415 17.7105 21.82 18.3119 21.6898 18.9666C21.5596 19.6213 21.6264 20.2999 21.8819 20.9166C22.1373 21.5333 22.5699 22.0604 23.1249 22.4312Z" clip-rule="evenodd" fill-rule="evenodd"></path>
<defs>
<linearGradient gradientUnits="userSpaceOnUse" y2="39.2026" x2="11.3488" y1="0.632602" x1="31.5556" id="paint0_linear_1766_64518">
<stop stop-color="#A1BAE9"></stop>
<stop stop-color="#B7E2E3" offset="1"></stop>
</linearGradient>
</defs>
</svg>
