<svg xmlns="http://www.w3.org/2000/svg" fill="none" viewBox="0 0 41 40" height="40" width="41">
<circle fill="url(#paint0_linear_1766_64517)" r="20" cy="20" cx="20.5"></circle>
<path fill="white" d="M18.6089 21.8785C17.9549 22.317 17.108 22.2796 16.4988 21.8201C16.2118 21.6037 16.0619 21.3447 16.0429 21.3203L15.8926 24.9115L13.4058 30.9473C13.0941 31.7038 13.4547 32.5696 14.2112 32.8813C14.9723 33.195 15.8355 32.8276 16.1452 32.0759L18.7315 25.7986C18.7973 25.6389 18.8346 25.4689 18.8419 25.2962L18.9997 21.5255C18.8886 21.6598 18.7576 21.7787 18.6089 21.8785Z"></path>
<path fill="white" d="M21.6097 11.154C23.0329 11.154 24.1867 10.0002 24.1867 8.57698C24.1867 7.15376 23.0329 6 21.6097 6C20.1865 6 19.0327 7.15376 19.0327 8.57698C19.0327 10.0002 20.1865 11.154 21.6097 11.154Z"></path>
<path fill="white" d="M28.5776 18.7361C28.533 18.5434 28.4392 18.3595 28.2932 18.2056L25.1396 14.88L23.2978 11.453C22.8072 11.7586 22.2288 11.9358 21.6096 11.9358C20.2205 11.9358 19.0356 11.0467 18.593 9.80781C17.6694 9.81647 17.5601 9.78664 17.302 9.83997C16.7865 9.78163 16.2736 10.0659 16.0647 10.569C15.8415 11.1062 14.0478 15.4256 13.8328 15.9432C13.6797 16.312 13.7206 16.7339 13.9439 17.0669L16.6026 21.0319C16.9696 21.5795 17.7133 21.7249 18.2595 21.3595C18.2598 21.3593 18.2601 21.3591 18.2605 21.3588C18.8066 20.9927 18.9562 20.251 18.5875 19.701L16.2856 16.2681L17.2361 13.9795L16.9381 16.118L19.107 19.3527C19.3328 19.6893 19.4375 20.0825 19.4117 20.4804H19.5676L21.2166 24.9763L22.3721 31.7604C22.5096 32.5673 23.275 33.1093 24.0812 32.972C24.8878 32.8346 25.4302 32.0694 25.2928 31.2628L24.1145 24.3449C24.0993 24.2559 24.076 24.1684 24.0449 24.0835L22.6541 20.2916V15.1076L23.1889 16.1026C23.2371 16.1924 23.2971 16.2753 23.3672 16.3492L26.3459 19.4903C26.1857 19.7599 26.0934 20.0743 26.0934 20.41V32.4786C26.0934 32.7665 26.3268 32.9999 26.6146 32.9999C26.9025 32.9999 27.1359 32.7666 27.1359 32.4786V20.41C27.1359 20.3045 27.1574 20.2041 27.1962 20.1126C27.283 20.133 27.3715 20.1445 27.4602 20.1445C27.7753 20.1445 28.0822 20.0175 28.31 19.7667C28.5223 19.9026 28.6636 20.1398 28.6636 20.41V22.0589C28.6636 22.3468 28.897 22.5802 29.1849 22.5802C29.4728 22.5802 29.7062 22.3468 29.7062 22.0589V20.41C29.706 19.6537 29.2385 19.0049 28.5776 18.7361Z"></path>
<defs>
<linearGradient gradientUnits="userSpaceOnUse" y2="39.2026" x2="11.3488" y1="0.632602" x1="31.5556" id="paint0_linear_1766_64517">
<stop stop-color="#A1BAE9"></stop>
<stop stop-color="#B7E2E3" offset="1"></stop>
</linearGradient>
</defs>
</svg>
