<svg xmlns="http://www.w3.org/2000/svg" fill="none" viewBox="0 0 66 28" height="28" width="66">
<g clip-path="url(#clip0_1618_73368)">
<path fill="#0065C7" d="M22.1667 2.10791H3.5C1.567 2.10791 0 3.67491 0 5.60791V24.5C0 26.433 1.567 28 3.5 28H22.1667C24.0997 28 25.6667 26.433 25.6667 24.5V5.60791C25.6667 3.67491 24.0997 2.10791 22.1667 2.10791Z"></path>
<path fill="#D6EDF3" d="M7.20568 0C6.63716 -2.48511e-08 6.17627 0.460883 6.17627 1.02941V3.39719C6.17627 3.96572 6.63716 4.4266 7.20568 4.4266C7.77419 4.4266 8.23509 3.96572 8.23509 3.39719V1.02941C8.23509 0.460883 7.77419 2.48513e-08 7.20568 0Z"></path>
<path fill="#D6EDF3" d="M18.3235 0C17.755 -2.48511e-08 17.2941 0.460883 17.2941 1.02941V3.39719C17.2941 3.96572 17.755 4.4266 18.3235 4.4266C18.892 4.4266 19.3529 3.96572 19.3529 3.39719V1.02941C19.3529 0.460883 18.892 2.48513e-08 18.3235 0Z"></path>
<path fill="#D6EDF3" d="M8.07551 7.58844C6.68542 7.58844 5.55872 8.71818 5.55872 10.1121V21.928C5.55872 23.3219 6.68542 24.4517 8.07551 24.4517C9.46559 24.4517 10.5923 23.3219 10.5923 21.928V10.1121C10.5923 8.71818 9.46559 7.58844 8.07551 7.58844Z"></path>
<path fill="#04A3A7" d="M20.3615 9.92113C20.2639 8.61627 19.1786 7.58844 17.8526 7.58844C16.5266 7.58844 15.4414 8.61627 15.3437 9.92113H15.3358V21.7371H15.3437C15.3388 21.8004 15.3358 21.8637 15.3358 21.928C15.3358 23.3219 16.4625 24.4517 17.8526 24.4517C19.2427 24.4517 20.3694 23.3219 20.3694 21.928C20.3694 21.8637 20.3665 21.8004 20.3615 21.7371H20.3694V9.92113H20.3615Z"></path>
<path fill="#04A3A7" d="M20.3823 16.111C20.3823 16.0942 20.3823 16.0784 20.3813 16.0626C20.3813 15.9913 20.3783 15.9201 20.3714 15.8489C20.0686 12.7564 15.2461 12.9572 13.0894 13.3144C11.0294 13.6557 9.03054 14.5846 7.64933 16.1882C6.42398 17.6078 5.40681 19.7902 5.57749 21.7598C5.57355 21.8152 5.57157 21.8716 5.57157 21.929C5.57157 23.3228 6.69826 24.4526 8.08834 24.4526C8.11103 24.4526 8.13472 24.4516 8.15741 24.4507C8.24818 24.4516 8.33993 24.4497 8.43169 24.4407H8.44056C9.13513 24.3715 9.77447 23.955 10.1701 23.3792C10.8903 22.3316 10.5332 21.0129 11.2188 19.9326C11.7989 19.0195 12.7806 18.4447 13.8353 18.2726C14.8337 18.1094 15.8529 18.234 16.8305 18.4556C17.7066 18.6545 18.5196 18.7257 19.3009 18.1756C19.4943 18.0401 19.665 17.8759 19.811 17.6919C20.1672 17.2635 20.3813 16.7125 20.3813 16.111H20.3823Z" opacity="0.6"></path>
</g>
<path fill="#0065C7" d="M32.0066 10H32.6366V8.5H34.2966V10H34.9316V6.275H34.2966V7.945H32.6366V6.275H32.0066V10ZM38.2403 8.555C38.2403 7.84 37.7003 7.245 36.9403 7.245C36.1803 7.245 35.6053 7.84 35.6053 8.65C35.6053 9.44 36.1703 10.06 36.9853 10.06C37.5353 10.06 37.9753 9.78 38.1403 9.395L37.6453 9.155C37.5253 9.375 37.3103 9.53 36.9903 9.53C36.5753 9.53 36.2603 9.255 36.2303 8.825H38.2103C38.2303 8.745 38.2403 8.65 38.2403 8.555ZM36.2403 8.36C36.3103 7.965 36.5903 7.745 36.9403 7.745C37.2853 7.745 37.5753 8 37.5953 8.36H36.2403ZM39.9115 7.245C39.3765 7.245 38.9265 7.53 38.7715 7.94L39.2915 8.2C39.3915 7.945 39.6215 7.785 39.9115 7.785C40.2115 7.785 40.4165 7.95 40.4165 8.2V8.285L39.5315 8.475C38.9865 8.595 38.6715 8.86 38.6715 9.26C38.6715 9.72 39.0515 10.06 39.6515 10.06C39.9765 10.06 40.2515 9.94 40.4515 9.7V10H41.0165V8.2C41.0165 7.64 40.5665 7.245 39.9115 7.245ZM39.7215 9.585C39.4615 9.585 39.2965 9.46 39.2965 9.255C39.2965 9.09 39.4265 8.96 39.6515 8.91L40.4165 8.74V8.915C40.4165 9.295 40.1215 9.585 39.7215 9.585ZM41.6973 10H42.2973V6.275H41.6973V10ZM44.289 10.03C44.384 10.03 44.504 10.02 44.599 10.005V9.525C44.534 9.535 44.469 9.54 44.419 9.54C44.039 9.54 43.944 9.325 43.944 9.095V7.845H44.584V7.305H43.944V6.47H43.344V6.9C43.344 7.16 43.194 7.305 42.934 7.305H42.854V7.845H43.344V9.095C43.344 9.69 43.684 10.03 44.289 10.03ZM46.5523 7.245C46.2423 7.245 45.9773 7.36 45.8223 7.57V6.275H45.2223V10H45.8223V8.4C45.8223 8.035 46.0523 7.8 46.3973 7.8C46.7373 7.8 46.9673 8.035 46.9673 8.4V10H47.5673V8.25C47.5673 7.655 47.1523 7.245 46.5523 7.245ZM33.8366 12.275H33.0366L31.7316 16H32.4016L32.6766 15.18H34.1966L34.4766 16H35.1466L33.8366 12.275ZM32.8616 14.625L33.4366 12.935L34.0116 14.625H32.8616ZM37.1517 13.245C36.7717 13.245 36.4467 13.395 36.2617 13.645V13.305H35.6967V17H36.2967V15.725C36.4867 15.935 36.7917 16.06 37.1467 16.06C37.9167 16.06 38.5167 15.45 38.5167 14.65C38.5167 13.85 37.9117 13.245 37.1517 13.245ZM37.0917 15.505C36.6267 15.505 36.2967 15.15 36.2967 14.655C36.2967 14.155 36.6267 13.8 37.0917 13.8C37.5517 13.8 37.8917 14.16 37.8917 14.655C37.8917 15.145 37.5517 15.505 37.0917 15.505ZM40.5987 13.245C40.2187 13.245 39.8937 13.395 39.7087 13.645V13.305H39.1437V17H39.7437V15.725C39.9337 15.935 40.2387 16.06 40.5937 16.06C41.3637 16.06 41.9637 15.45 41.9637 14.65C41.9637 13.85 41.3587 13.245 40.5987 13.245ZM40.5387 15.505C40.0737 15.505 39.7437 15.15 39.7437 14.655C39.7437 14.155 40.0737 13.8 40.5387 13.8C40.9987 13.8 41.3387 14.16 41.3387 14.655C41.3387 15.145 40.9987 15.505 40.5387 15.505ZM43.8558 16.06C44.6408 16.06 45.2708 15.465 45.2708 14.65C45.2708 13.835 44.6458 13.245 43.8558 13.245C43.0608 13.245 42.4408 13.835 42.4408 14.65C42.4408 15.465 43.0658 16.06 43.8558 16.06ZM43.8558 15.505C43.3958 15.505 43.0658 15.15 43.0658 14.655C43.0658 14.16 43.3958 13.8 43.8558 13.8C44.3108 13.8 44.6458 14.16 44.6458 14.655C44.6458 15.15 44.3108 15.505 43.8558 15.505ZM45.8763 12.95H46.4763V12.275H45.8763V12.95ZM45.8763 16H46.4763V13.305H45.8763V16ZM48.564 13.245C48.229 13.245 47.949 13.38 47.799 13.63V13.305H47.234V16H47.834V14.4C47.834 14.035 48.064 13.8 48.409 13.8C48.749 13.8 48.979 14.035 48.979 14.4V16H49.579V14.25C49.579 13.66 49.164 13.245 48.564 13.245ZM51.5249 16.03C51.6199 16.03 51.7399 16.02 51.8349 16.005V15.525C51.7699 15.535 51.7049 15.54 51.6549 15.54C51.2749 15.54 51.1799 15.325 51.1799 15.095V13.845H51.8199V13.305H51.1799V12.47H50.5799V12.9C50.5799 13.16 50.4299 13.305 50.1699 13.305H50.0899V13.845H50.5799V15.095C50.5799 15.69 50.9199 16.03 51.5249 16.03ZM55.4132 13.245C55.0432 13.245 54.7332 13.415 54.5732 13.69C54.4032 13.41 54.1082 13.245 53.7482 13.245C53.4232 13.245 53.1632 13.38 53.0232 13.635V13.305H52.4582V16H53.0582V14.4C53.0582 14.025 53.2682 13.8 53.5832 13.8C53.9032 13.8 54.1132 14.025 54.1132 14.4V16H54.7132V14.4C54.7132 14.025 54.9282 13.8 55.2432 13.8C55.5632 13.8 55.7732 14.025 55.7732 14.4V16H56.3732V14.25C56.3732 13.65 55.9732 13.245 55.4132 13.245ZM59.5865 14.555C59.5865 13.84 59.0465 13.245 58.2865 13.245C57.5265 13.245 56.9515 13.84 56.9515 14.65C56.9515 15.44 57.5165 16.06 58.3315 16.06C58.8815 16.06 59.3215 15.78 59.4865 15.395L58.9915 15.155C58.8715 15.375 58.6565 15.53 58.3365 15.53C57.9215 15.53 57.6065 15.255 57.5765 14.825H59.5565C59.5765 14.745 59.5865 14.65 59.5865 14.555ZM57.5865 14.36C57.6565 13.965 57.9365 13.745 58.2865 13.745C58.6315 13.745 58.9215 14 58.9415 14.36H57.5865ZM61.4978 13.245C61.1628 13.245 60.8828 13.38 60.7328 13.63V13.305H60.1678V16H60.7678V14.4C60.7678 14.035 60.9978 13.8 61.3428 13.8C61.6828 13.8 61.9128 14.035 61.9128 14.4V16H62.5128V14.25C62.5128 13.66 62.0978 13.245 61.4978 13.245ZM64.4587 16.03C64.5537 16.03 64.6737 16.02 64.7687 16.005V15.525C64.7037 15.535 64.6387 15.54 64.5887 15.54C64.2087 15.54 64.1137 15.325 64.1137 15.095V13.845H64.7537V13.305H64.1137V12.47H63.5137V12.9C63.5137 13.16 63.3637 13.305 63.1037 13.305H63.0237V13.845H63.5137V15.095C63.5137 15.69 63.8537 16.03 64.4587 16.03ZM33.3566 22.06C34.1466 22.06 34.6816 21.625 34.6816 20.98C34.6816 20.48 34.3666 20.15 33.7516 19.96L33.0466 19.745C32.7466 19.655 32.5866 19.485 32.5866 19.255C32.5866 18.97 32.8466 18.77 33.2366 18.77C33.6616 18.77 33.9816 18.995 34.1166 19.39L34.6616 19.14C34.4716 18.615 33.9366 18.215 33.2316 18.215C32.4716 18.215 31.9516 18.65 31.9516 19.285C31.9516 19.765 32.2516 20.135 32.8666 20.32L33.5966 20.545C33.8916 20.635 34.0466 20.77 34.0466 21.025C34.0466 21.3 33.7766 21.505 33.3566 21.505C32.9316 21.505 32.5466 21.25 32.3716 20.785L31.8316 21.03C32.0216 21.63 32.6216 22.06 33.3566 22.06ZM37.2099 19.305L36.4849 21.21L35.7599 19.305H35.1049L36.1649 21.99L36.0749 22.2C36.0049 22.365 35.9149 22.565 35.5699 22.565C35.4649 22.565 35.3349 22.545 35.2599 22.525V23.03C35.3699 23.08 35.5099 23.1 35.6549 23.1C36.3349 23.1 36.5449 22.61 36.6649 22.315L37.8649 19.305H37.2099ZM39.4167 22.06C40.0317 22.06 40.4567 21.73 40.4567 21.245C40.4567 20.87 40.2067 20.6 39.7417 20.47L39.2617 20.335C39.1067 20.29 38.9367 20.205 38.9367 20.035C38.9367 19.865 39.0917 19.75 39.3417 19.75C39.6467 19.75 39.8867 19.905 39.9867 20.16L40.4567 19.94C40.2917 19.51 39.8717 19.245 39.3417 19.245C38.7467 19.245 38.3417 19.575 38.3417 20.06C38.3417 20.425 38.5767 20.7 39.0467 20.83L39.5067 20.95C39.6717 20.995 39.8617 21.075 39.8617 21.26C39.8617 21.445 39.6867 21.57 39.4167 21.57C39.0967 21.57 38.8317 21.4 38.6917 21.08L38.2267 21.305C38.3967 21.775 38.8567 22.06 39.4167 22.06ZM42.2824 22.03C42.3774 22.03 42.4974 22.02 42.5924 22.005V21.525C42.5274 21.535 42.4624 21.54 42.4124 21.54C42.0324 21.54 41.9374 21.325 41.9374 21.095V19.845H42.5774V19.305H41.9374V18.47H41.3374V18.9C41.3374 19.16 41.1874 19.305 40.9274 19.305H40.8474V19.845H41.3374V21.095C41.3374 21.69 41.6774 22.03 42.2824 22.03ZM45.6615 20.555C45.6615 19.84 45.1215 19.245 44.3615 19.245C43.6015 19.245 43.0265 19.84 43.0265 20.65C43.0265 21.44 43.5915 22.06 44.4065 22.06C44.9565 22.06 45.3965 21.78 45.5615 21.395L45.0665 21.155C44.9465 21.375 44.7315 21.53 44.4115 21.53C43.9965 21.53 43.6815 21.255 43.6515 20.825H45.6315C45.6515 20.745 45.6615 20.65 45.6615 20.555ZM43.6615 20.36C43.7315 19.965 44.0115 19.745 44.3615 19.745C44.7065 19.745 44.9965 20 45.0165 20.36H43.6615ZM49.1978 19.245C48.8278 19.245 48.5178 19.415 48.3578 19.69C48.1878 19.41 47.8928 19.245 47.5328 19.245C47.2078 19.245 46.9478 19.38 46.8078 19.635V19.305H46.2428V22H46.8428V20.4C46.8428 20.025 47.0528 19.8 47.3678 19.8C47.6878 19.8 47.8978 20.025 47.8978 20.4V22H48.4978V20.4C48.4978 20.025 48.7128 19.8 49.0278 19.8C49.3478 19.8 49.5578 20.025 49.5578 20.4V22H50.1578V20.25C50.1578 19.65 49.7578 19.245 49.1978 19.245Z"></path>
<defs>
<clipPath id="clip0_1618_73368">
<rect fill="white" height="28" width="25.6667"></rect>
</clipPath>
</defs>
</svg>
