<svg xmlns="http://www.w3.org/2000/svg" fill="none" viewBox="0 0 41 40" height="40" width="41">
<circle fill="url(#paint0_linear_3229_89598)" r="20" cy="20" cx="20.5"></circle>
<g clip-path="url(#clip0_3229_89598)">
<path fill="white" d="M13.9312 15.111C14.03 16.2933 14.2569 17.9128 14.7705 19.6132C15.8611 23.2244 17.7877 25.7921 20.4999 27.2513C23.2121 25.7921 25.1387 23.2244 26.2293 19.6132C26.7428 17.9129 26.9697 16.2934 27.0687 15.111L20.4999 11.8267L13.9312 15.111Z"></path>
<path fill="white" d="M31.528 12.8426C31.5143 12.5793 31.36 12.3436 31.1241 12.2256L20.8275 7.07731C20.6213 6.97423 20.3786 6.97423 20.1724 7.07731L9.87578 12.2256C9.63989 12.3436 9.48559 12.5793 9.47192 12.8426C9.46411 12.9925 9.29477 16.5618 10.5106 20.7057C11.2301 23.1575 12.2883 25.299 13.6559 27.0706C15.3792 29.3031 17.5943 30.9455 20.2395 31.9521C20.3234 31.984 20.4116 32 20.4999 32C20.5883 32 20.6765 31.984 20.7604 31.9521C23.4056 30.9455 25.6207 29.3031 27.344 27.0706C28.7116 25.299 29.7698 23.1575 30.4893 20.7057C31.7051 16.5618 31.5358 12.9925 31.528 12.8426ZM20.8246 28.732C20.7223 28.7826 20.6111 28.8079 20.4999 28.8079C20.3888 28.8079 20.2776 28.7826 20.1753 28.732C16.914 27.1195 14.6238 24.194 13.3683 20.0369C12.7404 17.9576 12.5137 15.9984 12.4341 14.7209C12.4158 14.4276 12.5747 14.1517 12.8375 14.0203L20.1725 10.3528C20.3787 10.2498 20.6213 10.2498 20.8275 10.3528L28.1625 14.0203C28.4254 14.1517 28.5843 14.4276 28.566 14.721C28.4863 15.9985 28.2596 17.9578 27.6317 20.0369C26.3761 24.194 24.0859 27.1194 20.8246 28.732Z"></path>
</g>
<defs>
<linearGradient gradientUnits="userSpaceOnUse" y2="39.2026" x2="11.3488" y1="0.632602" x1="31.5556" id="paint0_linear_3229_89598">
<stop stop-color="#A1BAE9"></stop>
<stop stop-color="#B7E2E3" offset="1"></stop>
</linearGradient>
<clipPath id="clip0_3229_89598">
<rect transform="translate(8 7)" fill="white" height="25" width="25"></rect>
</clipPath>
</defs>
</svg>
